<?xml version="1.0" encoding="UTF-8"?>
<svg id="_レイヤー_2" data-name="レイヤー 2" xmlns="http://www.w3.org/2000/svg" viewBox="0 0 330.51 97.77">
  <defs>
    <style>
      .cls-1 {
        fill: none;
      }

      .cls-2 {
        fill: #fff;
      }

      .cls-3 {
        fill: #11a796;
      }
    </style>
  </defs>
  <g id="_レイヤー_1-2" data-name="レイヤー 1">
    <g id="Logo">
      <g id="G.U._Technologies" data-name="G.U. Technologies">
        <g>
          <path class="cls-2" d="m130.9,28.94h15.66v18.72c-1.68,1.4-3.69,2.42-6.03,3.06-2.34.64-4.65.96-6.93.96-2.68,0-5.17-.42-7.47-1.26s-4.29-2.15-5.97-3.93c-1.68-1.78-3-4.05-3.96-6.81-.96-2.76-1.44-6.04-1.44-9.84s.57-7.33,1.71-10.11c1.14-2.78,2.64-5.04,4.5-6.78,1.86-1.74,3.95-3,6.27-3.78,2.32-.78,4.68-1.17,7.08-1.17s4.51.18,6.33.54c1.82.36,3.27.74,4.35,1.14l-1.68,6.9c-1-.4-2.12-.71-3.36-.93-1.24-.22-2.82-.33-4.74-.33-1.72,0-3.3.26-4.74.78-1.44.52-2.69,1.37-3.75,2.55-1.06,1.18-1.88,2.69-2.46,4.53-.58,1.84-.87,4.08-.87,6.72s.28,4.69.84,6.51c.56,1.82,1.34,3.32,2.34,4.5,1,1.18,2.17,2.05,3.51,2.61s2.77.84,4.29.84c1.04,0,2.06-.13,3.06-.39,1-.26,1.84-.65,2.52-1.17v-7.92l-9.06-.96v-4.98Z"/>
          <path class="cls-2" d="m151.54,46.88c0-1.4.44-2.51,1.32-3.33.88-.82,2.04-1.23,3.48-1.23,1.52,0,2.72.41,3.6,1.23.88.82,1.32,1.93,1.32,3.33s-.44,2.52-1.32,3.36-2.08,1.26-3.6,1.26c-1.44,0-2.6-.42-3.48-1.26s-1.32-1.96-1.32-3.36Z"/>
          <path class="cls-2" d="m190.17,8.84h7.8v27.12c0,2.72-.36,5.06-1.08,7.02-.72,1.96-1.72,3.58-3,4.86s-2.84,2.22-4.68,2.82-3.86.9-6.06.9c-10.64,0-15.96-4.86-15.96-14.58V8.84h8.22v26.52c0,1.64.15,3.03.45,4.17.3,1.14.77,2.06,1.41,2.76.64.7,1.44,1.2,2.4,1.5s2.08.45,3.36.45c2.52,0,4.34-.7,5.46-2.1,1.12-1.4,1.68-3.66,1.68-6.78V8.84Z"/>
          <path class="cls-2" d="m203.91,46.88c0-1.4.44-2.51,1.32-3.33.88-.82,2.04-1.23,3.48-1.23,1.52,0,2.72.41,3.6,1.23.88.82,1.32,1.93,1.32,3.33s-.44,2.52-1.32,3.36c-.88.84-2.08,1.26-3.6,1.26-1.44,0-2.6-.42-3.48-1.26-.88-.84-1.32-1.96-1.32-3.36Z"/>
          <path class="cls-2" d="m241.23,28.94l-3.3-6.6h-.3l.96,6.6v21.9h-7.8V8.54h6l15.9,22.38,3.18,6.42h.3l-.96-6.42V8.84h7.8v42.3h-6l-15.78-22.2Z"/>
          <path class="cls-2" d="m270.21,8.84h24.9v7.32h-16.68v10.38h15.36v7.32h-15.36v16.98h-8.22V8.84Z"/>
          <path class="cls-2" d="m330.51,16.16h-12.24v34.68h-8.22V16.16h-12.3v-7.32h32.76v7.32Z"/>
        </g>
      </g>
      <g id="G.U._Technologies-2" data-name="G.U. Technologies">
        <g>
          <path class="cls-2" d="m137.4,70.97l.4-4.2h-.2l-1.52,3.84-7.28,12.64h-1l-7.72-12.68-1.44-3.8h-.2l.56,4.16v18.84h-3.12v-28h2.48l8.76,14.32,1.32,3.12h.08l1.24-3.2,8.36-14.24h2.6v28h-3.32v-18.8Z"/>
          <path class="cls-2" d="m147.68,71.25c1.01-.61,2.19-1.07,3.54-1.36,1.35-.29,2.75-.44,4.22-.44,1.39,0,2.5.19,3.34.56.84.37,1.48.86,1.92,1.46.44.6.73,1.26.88,1.98.15.72.22,1.44.22,2.16,0,1.6-.04,3.16-.12,4.68-.08,1.52-.12,2.96-.12,4.32,0,.99.04,1.92.12,2.8.08.88.23,1.69.44,2.44h-2.36l-.84-2.8h-.2c-.24.37-.54.74-.9,1.1-.36.36-.79.68-1.3.96-.51.28-1.09.51-1.76.7-.67.19-1.43.28-2.28.28s-1.65-.13-2.38-.4c-.73-.27-1.37-.65-1.9-1.14-.53-.49-.95-1.09-1.26-1.78-.31-.69-.46-1.48-.46-2.36,0-1.17.24-2.15.72-2.94.48-.79,1.15-1.41,2.02-1.88.87-.47,1.91-.8,3.12-1,1.21-.2,2.55-.3,4.02-.3h1.1c.36,0,.73.03,1.1.08.08-.8.12-1.52.12-2.16,0-1.47-.29-2.49-.88-3.08-.59-.59-1.65-.88-3.2-.88-.45,0-.94.03-1.46.1-.52.07-1.05.17-1.6.29-.55.12-1.07.27-1.56.45-.49.18-.93.38-1.3.6l-1-2.44Zm5.68,16.04c.75,0,1.41-.1,2-.3.59-.2,1.09-.45,1.52-.76.43-.31.78-.65,1.06-1.02.28-.37.49-.73.62-1.08v-3.32c-.37-.03-.75-.05-1.14-.06-.39-.01-.77-.02-1.14-.02-.83,0-1.63.05-2.42.14s-1.48.27-2.08.52c-.6.25-1.08.6-1.44,1.04-.36.44-.54.99-.54,1.66,0,.93.33,1.7,1,2.3.67.6,1.52.9,2.56.9Z"/>
          <path class="cls-2" d="m178.07,72.85c-.8-.27-1.56-.4-2.28-.4-1.15,0-2.05.31-2.72.94-.67.63-1.08,1.42-1.24,2.38v14h-3.2v-20h2.24l.6,2.44h.16c.51-.91,1.11-1.61,1.82-2.1.71-.49,1.61-.74,2.7-.74.77,0,1.64.13,2.6.4l-.68,3.08Z"/>
          <path class="cls-2" d="m188.07,80.77h-1.84v9h-3.2v-28h3.2v17.04l1.64-.56,6.2-8.48h3.72l-6.12,8.04-1.64,1.32,2,1.6,6.68,9.04h-3.96l-6.68-9Z"/>
          <path class="cls-2" d="m217.11,88.17c-.8.64-1.81,1.15-3.02,1.52-1.21.37-2.5.56-3.86.56-1.52,0-2.84-.25-3.96-.74-1.12-.49-2.04-1.2-2.76-2.12s-1.25-2.02-1.6-3.3c-.35-1.28-.52-2.72-.52-4.32,0-3.41.76-6.01,2.28-7.8,1.52-1.79,3.69-2.68,6.52-2.68.91,0,1.81.1,2.72.3.91.2,1.72.58,2.44,1.14.72.56,1.31,1.35,1.76,2.38.45,1.03.68,2.38.68,4.06,0,.88-.08,1.85-.24,2.92h-12.84c0,1.17.12,2.21.36,3.12.24.91.61,1.67,1.12,2.3.51.63,1.17,1.11,1.98,1.44.81.33,1.81.5,2.98.5.91,0,1.81-.16,2.72-.48.91-.32,1.59-.69,2.04-1.12l1.2,2.32Zm-6.88-16.08c-1.57,0-2.83.41-3.78,1.24-.95.83-1.51,2.24-1.7,4.24h9.92c0-2.03-.39-3.45-1.16-4.26-.77-.81-1.87-1.22-3.28-1.22Z"/>
          <path class="cls-2" d="m220.99,69.77h3.12v-3.96l3.2-.92v4.88h5.44v2.8h-5.44v11.08c0,1.39.17,2.37.52,2.94s.93.86,1.76.86c.69,0,1.28-.07,1.76-.22.48-.15,1.01-.34,1.6-.58l.72,2.44c-.72.35-1.51.63-2.36.84s-1.77.32-2.76.32c-1.63,0-2.77-.46-3.44-1.38-.67-.92-1-2.46-1-4.62v-11.68h-3.12v-2.8Z"/>
          <path class="cls-2" d="m237.99,69.77h2.2l.6,2.4h.16c.61-.93,1.41-1.65,2.38-2.14.97-.49,2.09-.74,3.34-.74,2.67,0,4.65.79,5.96,2.36,1.31,1.57,1.96,4.15,1.96,7.72,0,1.68-.22,3.19-.66,4.54-.44,1.35-1.06,2.49-1.86,3.42s-1.77,1.65-2.9,2.16c-1.13.51-2.39.76-3.78.76-.99,0-1.77-.06-2.34-.18-.57-.12-1.19-.33-1.86-.62v8.32h-3.2v-28Zm8.08,2.32c-1.36,0-2.43.35-3.22,1.06-.79.71-1.34,1.78-1.66,3.22v9.92c.48.37,1.03.66,1.64.86.61.2,1.43.3,2.44.3,1.84,0,3.3-.69,4.38-2.06,1.08-1.37,1.62-3.39,1.62-6.06,0-1.09-.09-2.09-.28-2.98-.19-.89-.49-1.65-.9-2.28-.41-.63-.95-1.11-1.6-1.46-.65-.35-1.46-.52-2.42-.52Z"/>
          <path class="cls-2" d="m263.99,84.85c0,.93.16,1.6.48,2,.32.4.77.6,1.36.6.35,0,.72-.03,1.12-.08.4-.05.85-.17,1.36-.36l.36,2.52c-.43.21-1.02.39-1.78.52-.76.13-1.42.2-1.98.2-1.2,0-2.19-.34-2.96-1.02-.77-.68-1.16-1.83-1.16-3.46v-24h3.2v23.08Z"/>
          <path class="cls-2" d="m272.59,71.25c1.01-.61,2.19-1.07,3.54-1.36,1.35-.29,2.75-.44,4.22-.44,1.39,0,2.5.19,3.34.56.84.37,1.48.86,1.92,1.46s.73,1.26.88,1.98c.15.72.22,1.44.22,2.16,0,1.6-.04,3.16-.12,4.68-.08,1.52-.12,2.96-.12,4.32,0,.99.04,1.92.12,2.8.08.88.23,1.69.44,2.44h-2.36l-.84-2.8h-.2c-.24.37-.54.74-.9,1.1s-.79.68-1.3.96c-.51.28-1.09.51-1.76.7-.67.19-1.43.28-2.28.28s-1.65-.13-2.38-.4c-.73-.27-1.37-.65-1.9-1.14-.53-.49-.95-1.09-1.26-1.78-.31-.69-.46-1.48-.46-2.36,0-1.17.24-2.15.72-2.94.48-.79,1.15-1.41,2.02-1.88s1.91-.8,3.12-1,2.55-.3,4.02-.3h1.1c.36,0,.73.03,1.1.08.08-.8.12-1.52.12-2.16,0-1.47-.29-2.49-.88-3.08-.59-.59-1.65-.88-3.2-.88-.45,0-.94.03-1.46.1-.52.07-1.05.17-1.6.29-.55.12-1.07.27-1.56.45-.49.18-.93.38-1.3.6l-1-2.44Zm5.68,16.04c.75,0,1.41-.1,2-.3.59-.2,1.09-.45,1.52-.76.43-.31.78-.65,1.06-1.02.28-.37.49-.73.62-1.08v-3.32c-.37-.03-.75-.05-1.14-.06s-.77-.02-1.14-.02c-.83,0-1.63.05-2.42.14-.79.09-1.48.27-2.08.52-.6.25-1.08.6-1.44,1.04-.36.44-.54.99-.54,1.66,0,.93.33,1.7,1,2.3.67.6,1.52.9,2.56.9Z"/>
          <path class="cls-2" d="m307.19,88.45c-.8.59-1.75,1.03-2.84,1.34-1.09.31-2.24.46-3.44.46-1.55,0-2.85-.25-3.92-.74-1.07-.49-1.94-1.2-2.62-2.12s-1.17-2.03-1.48-3.32c-.31-1.29-.46-2.73-.46-4.3,0-3.39.75-5.98,2.24-7.78,1.49-1.8,3.64-2.7,6.44-2.7,1.28,0,2.37.1,3.26.3.89.2,1.7.49,2.42.86l-.92,2.76c-.61-.35-1.29-.62-2.04-.82-.75-.2-1.55-.3-2.4-.3-3.79,0-5.68,2.56-5.68,7.68,0,1.01.1,1.98.3,2.9s.53,1.73,1,2.44c.47.71,1.08,1.27,1.84,1.7.76.43,1.7.64,2.82.64.96,0,1.82-.15,2.58-.44.76-.29,1.38-.63,1.86-1l1.04,2.44Z"/>
          <path class="cls-2" d="m326.07,88.17c-.8.64-1.81,1.15-3.02,1.52-1.21.37-2.5.56-3.86.56-1.52,0-2.84-.25-3.96-.74s-2.04-1.2-2.76-2.12c-.72-.92-1.25-2.02-1.6-3.3s-.52-2.72-.52-4.32c0-3.41.76-6.01,2.28-7.8,1.52-1.79,3.69-2.68,6.52-2.68.91,0,1.81.1,2.72.3s1.72.58,2.44,1.14c.72.56,1.31,1.35,1.76,2.38.45,1.03.68,2.38.68,4.06,0,.88-.08,1.85-.24,2.92h-12.84c0,1.17.12,2.21.36,3.12s.61,1.67,1.12,2.3c.51.63,1.17,1.11,1.98,1.44.81.33,1.81.5,2.98.5.91,0,1.81-.16,2.72-.48s1.59-.69,2.04-1.12l1.2,2.32Zm-6.88-16.08c-1.57,0-2.83.41-3.78,1.24s-1.51,2.24-1.7,4.24h9.92c0-2.03-.39-3.45-1.16-4.26-.77-.81-1.87-1.22-3.28-1.22Z"/>
        </g>
      </g>
      <path class="cls-3" d="m94.86,22.49l-25.03-14.45-22.4,12.93-22.4-12.93L0,22.49v28.9l22.25,12.84v11.07l25.03,14.45,25.03-14.45v-10.89l22.56-13.02v-28.9Zm-28.12,35.15l-16.38-9.46v-8.02l16.38,9.46v8.02ZM5.56,48.19v-22.48l19.47-11.24,19.47,11.24v7.86l-22.25,12.84v11.41l-16.69-9.63Zm38.93-8.2v8.2l-16.69,9.63v-8.2l16.69-9.63Zm2.78,43.35l-19.47-11.24v-7.86l19.62-11.33,19.31,11.15v8.04l-19.47,11.24Zm42.02-35.16l-17,9.81v-11.59l-21.94-12.67v-8.04l19.47-11.24,19.47,11.24v22.48Z"/>
      <rect class="cls-1" width="330.51" height="97.77"/>
    </g>
  </g>
</svg>